<svg aria-hidden="true" style="position: absolute; width: 0; height: 0; overflow: hidden;" version="1.1" xmlns="http://www.w3.org/2000/svg" xmlns:xlink="http://www.w3.org/1999/xlink">
<defs>
<symbol id="icon-textalignjustifycenter" viewBox="0 0 32 32">
<path stroke-linejoin="round" stroke-linecap="round" stroke-miterlimit="4" stroke-width="1.561" d="M4 5.954h24M4 12.62h24M4 19.287h24M4 25.953h24"></path>
</symbol>
<symbol id="arrow-next" viewBox="0 0 46 32">
<path d="M44.552 17.475c0.377-0.378 0.61-0.899 0.61-1.475s-0.233-1.097-0.61-1.475l-13.281-13.284c-0.378-0.377-0.899-0.611-1.475-0.611-1.153 0-2.087 0.934-2.087 2.087 0 0.577 0.234 1.098 0.612 1.476l11.805 11.807-11.805 11.805c-0.378 0.378-0.612 0.9-0.612 1.476 0 1.153 0.934 2.087 2.087 2.087 0.576 0 1.098-0.233 1.476-0.611l13.281-13.281zM0.053 18.087h43.025v-4.174h-43.025v4.174z"></path>
</symbol>
<symbol id="arrow-prev" viewBox="0 0 44 32">
<path d="M1.253 14.587c-0.361 0.362-0.585 0.861-0.585 1.413s0.224 1.052 0.585 1.413l12.727 12.729c0.362 0.362 0.862 0.586 1.415 0.586 1.105 0 2.001-0.896 2.001-2.001 0-0.552-0.224-1.053-0.586-1.415l-11.316-11.313 11.315-11.313c0.362-0.362 0.585-0.862 0.585-1.414 0-1.105-0.895-2-2-2-0.553 0-1.053 0.224-1.415 0.586l-12.725 12.728zM43.897 14h-41.231v4h41.231v-4z"></path>
</symbol>
</defs>
</svg>
